<mxfile host="Electron" agent="Mozilla/5.0 (Windows NT 10.0; Win64; x64) AppleWebKit/537.36 (KHTML, like Gecko) draw.io/25.0.2 Chrome/128.0.6613.186 Electron/32.2.5 Safari/537.36" version="25.0.2">
  <diagram name="Страница — 1" id="XJjiVzX5ALJqprdlAjiM">
    <mxGraphModel dx="1208" dy="810" grid="1" gridSize="10" guides="1" tooltips="1" connect="0" arrows="1" fold="1" page="1" pageScale="1" pageWidth="827" pageHeight="1169" math="0" shadow="0">
      <root>
        <mxCell id="0" />
        <mxCell id="1" parent="0" />
        <mxCell id="BEybLAtCmw5lqT1kiuZ2-1" value="" style="endArrow=none;dashed=1;html=1;dashPattern=1 3;strokeWidth=2;rounded=0;curved=1;" parent="1" edge="1">
          <mxGeometry width="50" height="50" relative="1" as="geometry">
            <mxPoint x="130" y="760" as="sourcePoint" />
            <mxPoint x="709" y="760" as="targetPoint" />
            <Array as="points">
              <mxPoint x="119" y="420" />
              <mxPoint x="429" y="240" />
              <mxPoint x="610" y="340" />
              <mxPoint x="709" y="480" />
            </Array>
          </mxGeometry>
        </mxCell>
        <mxCell id="BEybLAtCmw5lqT1kiuZ2-22" value="" style="group" parent="1" vertex="1" connectable="0">
          <mxGeometry x="90" y="610" width="80" height="162.5" as="geometry" />
        </mxCell>
        <mxCell id="BEybLAtCmw5lqT1kiuZ2-15" value="" style="shape=step;perimeter=stepPerimeter;whiteSpace=wrap;html=1;fixedSize=1;rotation=-90;" parent="BEybLAtCmw5lqT1kiuZ2-22" vertex="1">
          <mxGeometry x="7.5" y="90" width="65" height="80" as="geometry" />
        </mxCell>
        <mxCell id="BEybLAtCmw5lqT1kiuZ2-3" value="" style="triangle;whiteSpace=wrap;html=1;direction=south;rotation=-180;fillColor=#6d8764;fontColor=#ffffff;strokeColor=#3A5431;" parent="BEybLAtCmw5lqT1kiuZ2-22" vertex="1">
          <mxGeometry x="20" width="40" height="30" as="geometry" />
        </mxCell>
        <mxCell id="BEybLAtCmw5lqT1kiuZ2-2" value="" style="rounded=0;whiteSpace=wrap;html=1;rotation=0;direction=south;fillColor=#008a00;fontColor=#ffffff;strokeColor=#005700;" parent="BEybLAtCmw5lqT1kiuZ2-22" vertex="1">
          <mxGeometry x="25" y="30" width="30" height="120" as="geometry" />
        </mxCell>
        <mxCell id="BEybLAtCmw5lqT1kiuZ2-23" value="" style="group;rotation=15;" parent="1" vertex="1" connectable="0">
          <mxGeometry x="120" y="400" width="80" height="162.5" as="geometry" />
        </mxCell>
        <mxCell id="BEybLAtCmw5lqT1kiuZ2-24" value="" style="shape=step;perimeter=stepPerimeter;whiteSpace=wrap;html=1;fixedSize=1;rotation=-75;" parent="BEybLAtCmw5lqT1kiuZ2-23" vertex="1">
          <mxGeometry x="-5" y="88" width="65" height="80" as="geometry" />
        </mxCell>
        <mxCell id="BEybLAtCmw5lqT1kiuZ2-25" value="" style="triangle;whiteSpace=wrap;html=1;direction=south;rotation=-165;fillColor=#6d8764;fontColor=#ffffff;strokeColor=#3A5431;" parent="BEybLAtCmw5lqT1kiuZ2-23" vertex="1">
          <mxGeometry x="37" y="2" width="40" height="30" as="geometry" />
        </mxCell>
        <mxCell id="BEybLAtCmw5lqT1kiuZ2-26" value="" style="rounded=0;whiteSpace=wrap;html=1;rotation=15;direction=south;fillColor=#008a00;fontColor=#ffffff;strokeColor=#005700;" parent="BEybLAtCmw5lqT1kiuZ2-23" vertex="1">
          <mxGeometry x="23" y="30" width="30" height="120" as="geometry" />
        </mxCell>
        <mxCell id="BEybLAtCmw5lqT1kiuZ2-27" value="" style="group;rotation=60;" parent="1" vertex="1" connectable="0">
          <mxGeometry x="230" y="250" width="80" height="162.5" as="geometry" />
        </mxCell>
        <mxCell id="BEybLAtCmw5lqT1kiuZ2-28" value="" style="shape=step;perimeter=stepPerimeter;whiteSpace=wrap;html=1;fixedSize=1;rotation=-30;" parent="BEybLAtCmw5lqT1kiuZ2-27" vertex="1">
          <mxGeometry x="-35" y="66" width="65" height="80" as="geometry" />
        </mxCell>
        <mxCell id="BEybLAtCmw5lqT1kiuZ2-30" value="" style="rounded=0;whiteSpace=wrap;html=1;rotation=60;direction=south;fillColor=#008a00;fontColor=#ffffff;strokeColor=#005700;" parent="BEybLAtCmw5lqT1kiuZ2-27" vertex="1">
          <mxGeometry x="17" y="25" width="30" height="120" as="geometry" />
        </mxCell>
        <mxCell id="BEybLAtCmw5lqT1kiuZ2-38" value="" style="group" parent="1" vertex="1" connectable="0">
          <mxGeometry x="330" y="730" width="70" height="20" as="geometry" />
        </mxCell>
        <mxCell id="BEybLAtCmw5lqT1kiuZ2-32" value="" style="rounded=1;whiteSpace=wrap;html=1;" parent="BEybLAtCmw5lqT1kiuZ2-38" vertex="1">
          <mxGeometry width="70" height="20" as="geometry" />
        </mxCell>
        <mxCell id="BEybLAtCmw5lqT1kiuZ2-34" value="" style="rounded=1;whiteSpace=wrap;html=1;fillColor=#d5e8d4;strokeColor=#82b366;" parent="BEybLAtCmw5lqT1kiuZ2-38" vertex="1">
          <mxGeometry width="20" height="20" as="geometry" />
        </mxCell>
        <mxCell id="BEybLAtCmw5lqT1kiuZ2-35" value="" style="rounded=1;whiteSpace=wrap;html=1;fillColor=#f8cecc;strokeColor=#b85450;" parent="BEybLAtCmw5lqT1kiuZ2-38" vertex="1">
          <mxGeometry x="20" width="10" height="20" as="geometry" />
        </mxCell>
        <mxCell id="BEybLAtCmw5lqT1kiuZ2-36" value="" style="rounded=1;whiteSpace=wrap;html=1;fillColor=#dae8fc;strokeColor=#6c8ebf;" parent="BEybLAtCmw5lqT1kiuZ2-38" vertex="1">
          <mxGeometry x="30" width="20" height="20" as="geometry" />
        </mxCell>
        <mxCell id="BEybLAtCmw5lqT1kiuZ2-37" value="" style="rounded=1;whiteSpace=wrap;html=1;fillColor=#f8cecc;strokeColor=#b85450;" parent="BEybLAtCmw5lqT1kiuZ2-38" vertex="1">
          <mxGeometry x="50" width="20" height="20" as="geometry" />
        </mxCell>
        <mxCell id="BEybLAtCmw5lqT1kiuZ2-44" value="" style="group;rotation=90;" parent="1" vertex="1" connectable="0">
          <mxGeometry x="670" y="710" width="70" height="20" as="geometry" />
        </mxCell>
        <mxCell id="BEybLAtCmw5lqT1kiuZ2-39" value="" style="rounded=1;whiteSpace=wrap;html=1;rotation=90;" parent="BEybLAtCmw5lqT1kiuZ2-44" vertex="1">
          <mxGeometry width="70" height="20" as="geometry" />
        </mxCell>
        <mxCell id="BEybLAtCmw5lqT1kiuZ2-40" value="" style="rounded=1;whiteSpace=wrap;html=1;fillColor=#d5e8d4;strokeColor=#82b366;rotation=90;" parent="BEybLAtCmw5lqT1kiuZ2-44" vertex="1">
          <mxGeometry x="25" y="-25" width="20" height="20" as="geometry" />
        </mxCell>
        <mxCell id="BEybLAtCmw5lqT1kiuZ2-41" value="" style="rounded=1;whiteSpace=wrap;html=1;fillColor=#f8cecc;strokeColor=#b85450;rotation=90;" parent="BEybLAtCmw5lqT1kiuZ2-44" vertex="1">
          <mxGeometry x="30" y="-10" width="10" height="20" as="geometry" />
        </mxCell>
        <mxCell id="BEybLAtCmw5lqT1kiuZ2-42" value="" style="rounded=1;whiteSpace=wrap;html=1;fillColor=#dae8fc;strokeColor=#6c8ebf;rotation=90;" parent="BEybLAtCmw5lqT1kiuZ2-44" vertex="1">
          <mxGeometry x="25" y="5" width="20" height="20" as="geometry" />
        </mxCell>
        <mxCell id="BEybLAtCmw5lqT1kiuZ2-43" value="" style="rounded=1;whiteSpace=wrap;html=1;fillColor=#f8cecc;strokeColor=#b85450;rotation=90;" parent="BEybLAtCmw5lqT1kiuZ2-44" vertex="1">
          <mxGeometry x="25" y="25" width="20" height="20" as="geometry" />
        </mxCell>
        <mxCell id="BEybLAtCmw5lqT1kiuZ2-51" value="" style="group;rotation=-190;" parent="1" vertex="1" connectable="0">
          <mxGeometry x="370" y="270" width="70" height="20" as="geometry" />
        </mxCell>
        <mxCell id="BEybLAtCmw5lqT1kiuZ2-46" value="" style="rounded=1;whiteSpace=wrap;html=1;container=0;rotation=-190;" parent="BEybLAtCmw5lqT1kiuZ2-51" vertex="1">
          <mxGeometry width="70" height="20" as="geometry" />
        </mxCell>
        <mxCell id="BEybLAtCmw5lqT1kiuZ2-47" value="" style="rounded=1;whiteSpace=wrap;html=1;fillColor=#d5e8d4;strokeColor=#82b366;container=0;rotation=-190;" parent="BEybLAtCmw5lqT1kiuZ2-51" vertex="1">
          <mxGeometry x="50" y="-4" width="20" height="20" as="geometry" />
        </mxCell>
        <mxCell id="BEybLAtCmw5lqT1kiuZ2-48" value="" style="rounded=1;whiteSpace=wrap;html=1;fillColor=#f8cecc;strokeColor=#b85450;container=0;rotation=-190;" parent="BEybLAtCmw5lqT1kiuZ2-51" vertex="1">
          <mxGeometry x="40" y="-2" width="10" height="20" as="geometry" />
        </mxCell>
        <mxCell id="BEybLAtCmw5lqT1kiuZ2-49" value="" style="rounded=1;whiteSpace=wrap;html=1;fillColor=#dae8fc;strokeColor=#6c8ebf;container=0;rotation=-190;" parent="BEybLAtCmw5lqT1kiuZ2-51" vertex="1">
          <mxGeometry x="20" y="1" width="20" height="20" as="geometry" />
        </mxCell>
        <mxCell id="BEybLAtCmw5lqT1kiuZ2-50" value="" style="rounded=1;whiteSpace=wrap;html=1;fillColor=#f8cecc;strokeColor=#b85450;container=0;rotation=-190;" parent="BEybLAtCmw5lqT1kiuZ2-51" vertex="1">
          <mxGeometry y="4" width="20" height="20" as="geometry" />
        </mxCell>
        <mxCell id="BEybLAtCmw5lqT1kiuZ2-52" value="" style="group;rotation=33;" parent="1" vertex="1" connectable="0">
          <mxGeometry x="540" y="320" width="70" height="20" as="geometry" />
        </mxCell>
        <mxCell id="BEybLAtCmw5lqT1kiuZ2-53" value="" style="rounded=1;whiteSpace=wrap;html=1;container=0;rotation=33;" parent="BEybLAtCmw5lqT1kiuZ2-52" vertex="1">
          <mxGeometry width="70" height="20" as="geometry" />
        </mxCell>
        <mxCell id="BEybLAtCmw5lqT1kiuZ2-54" value="" style="rounded=1;whiteSpace=wrap;html=1;fillColor=#d5e8d4;strokeColor=#82b366;container=0;rotation=33;" parent="BEybLAtCmw5lqT1kiuZ2-52" vertex="1">
          <mxGeometry x="4" y="-14" width="20" height="20" as="geometry" />
        </mxCell>
        <mxCell id="BEybLAtCmw5lqT1kiuZ2-55" value="" style="rounded=1;whiteSpace=wrap;html=1;fillColor=#f8cecc;strokeColor=#b85450;container=0;rotation=33;" parent="BEybLAtCmw5lqT1kiuZ2-52" vertex="1">
          <mxGeometry x="21" y="-5" width="10" height="20" as="geometry" />
        </mxCell>
        <mxCell id="BEybLAtCmw5lqT1kiuZ2-56" value="" style="rounded=1;whiteSpace=wrap;html=1;fillColor=#dae8fc;strokeColor=#6c8ebf;container=0;rotation=33;" parent="BEybLAtCmw5lqT1kiuZ2-52" vertex="1">
          <mxGeometry x="29" y="3" width="20" height="20" as="geometry" />
        </mxCell>
        <mxCell id="BEybLAtCmw5lqT1kiuZ2-57" value="" style="rounded=1;whiteSpace=wrap;html=1;fillColor=#f8cecc;strokeColor=#b85450;container=0;rotation=33;" parent="BEybLAtCmw5lqT1kiuZ2-52" vertex="1">
          <mxGeometry x="46" y="14" width="20" height="20" as="geometry" />
        </mxCell>
        <mxCell id="BEybLAtCmw5lqT1kiuZ2-58" value="" style="group;rotation=60;" parent="1" vertex="1" connectable="0">
          <mxGeometry x="640" y="420" width="70" height="20" as="geometry" />
        </mxCell>
        <mxCell id="BEybLAtCmw5lqT1kiuZ2-59" value="" style="rounded=1;whiteSpace=wrap;html=1;container=0;rotation=60;" parent="BEybLAtCmw5lqT1kiuZ2-58" vertex="1">
          <mxGeometry width="70" height="20" as="geometry" />
        </mxCell>
        <mxCell id="BEybLAtCmw5lqT1kiuZ2-60" value="" style="rounded=1;whiteSpace=wrap;html=1;fillColor=#d5e8d4;strokeColor=#82b366;container=0;rotation=60;" parent="BEybLAtCmw5lqT1kiuZ2-58" vertex="1">
          <mxGeometry x="13" y="-22" width="20" height="20" as="geometry" />
        </mxCell>
        <mxCell id="BEybLAtCmw5lqT1kiuZ2-61" value="" style="rounded=1;whiteSpace=wrap;html=1;fillColor=#f8cecc;strokeColor=#b85450;container=0;rotation=60;" parent="BEybLAtCmw5lqT1kiuZ2-58" vertex="1">
          <mxGeometry x="24" y="-9" width="10" height="20" as="geometry" />
        </mxCell>
        <mxCell id="BEybLAtCmw5lqT1kiuZ2-62" value="" style="rounded=1;whiteSpace=wrap;html=1;fillColor=#dae8fc;strokeColor=#6c8ebf;container=0;rotation=60;" parent="BEybLAtCmw5lqT1kiuZ2-58" vertex="1">
          <mxGeometry x="27" y="4" width="20" height="20" as="geometry" />
        </mxCell>
        <mxCell id="BEybLAtCmw5lqT1kiuZ2-63" value="" style="rounded=1;whiteSpace=wrap;html=1;fillColor=#f8cecc;strokeColor=#b85450;container=0;rotation=60;" parent="BEybLAtCmw5lqT1kiuZ2-58" vertex="1">
          <mxGeometry x="37" y="22" width="20" height="20" as="geometry" />
        </mxCell>
        <mxCell id="BEybLAtCmw5lqT1kiuZ2-64" value="" style="group;rotation=85;" parent="1" vertex="1" connectable="0">
          <mxGeometry x="670" y="565" width="70" height="20" as="geometry" />
        </mxCell>
        <mxCell id="BEybLAtCmw5lqT1kiuZ2-65" value="" style="rounded=1;whiteSpace=wrap;html=1;container=0;rotation=85;" parent="BEybLAtCmw5lqT1kiuZ2-64" vertex="1">
          <mxGeometry width="70" height="20" as="geometry" />
        </mxCell>
        <mxCell id="BEybLAtCmw5lqT1kiuZ2-66" value="" style="rounded=1;whiteSpace=wrap;html=1;fillColor=#d5e8d4;strokeColor=#82b366;container=0;rotation=85;" parent="BEybLAtCmw5lqT1kiuZ2-64" vertex="1">
          <mxGeometry x="23" y="-25" width="20" height="20" as="geometry" />
        </mxCell>
        <mxCell id="BEybLAtCmw5lqT1kiuZ2-67" value="" style="rounded=1;whiteSpace=wrap;html=1;fillColor=#f8cecc;strokeColor=#b85450;container=0;rotation=85;" parent="BEybLAtCmw5lqT1kiuZ2-64" vertex="1">
          <mxGeometry x="29" y="-10" width="10" height="20" as="geometry" />
        </mxCell>
        <mxCell id="BEybLAtCmw5lqT1kiuZ2-68" value="" style="rounded=1;whiteSpace=wrap;html=1;fillColor=#dae8fc;strokeColor=#6c8ebf;container=0;rotation=85;" parent="BEybLAtCmw5lqT1kiuZ2-64" vertex="1">
          <mxGeometry x="25" y="4" width="20" height="20" as="geometry" />
        </mxCell>
        <mxCell id="BEybLAtCmw5lqT1kiuZ2-69" value="" style="rounded=1;whiteSpace=wrap;html=1;fillColor=#f8cecc;strokeColor=#b85450;container=0;rotation=85;" parent="BEybLAtCmw5lqT1kiuZ2-64" vertex="1">
          <mxGeometry x="27" y="25" width="20" height="20" as="geometry" />
        </mxCell>
        <mxCell id="BEybLAtCmw5lqT1kiuZ2-77" value="" style="endArrow=none;html=1;rounded=0;" parent="1" edge="1">
          <mxGeometry width="50" height="50" relative="1" as="geometry">
            <mxPoint x="660" y="400" as="sourcePoint" />
            <mxPoint x="670" y="380" as="targetPoint" />
          </mxGeometry>
        </mxCell>
        <mxCell id="BEybLAtCmw5lqT1kiuZ2-78" value="" style="endArrow=none;html=1;rounded=0;" parent="1" edge="1">
          <mxGeometry width="50" height="50" relative="1" as="geometry">
            <mxPoint x="660" y="400" as="sourcePoint" />
            <mxPoint x="660" y="380" as="targetPoint" />
          </mxGeometry>
        </mxCell>
        <mxCell id="BEybLAtCmw5lqT1kiuZ2-80" value="" style="endArrow=none;html=1;rounded=0;" parent="1" edge="1">
          <mxGeometry width="50" height="50" relative="1" as="geometry">
            <mxPoint x="660" y="400" as="sourcePoint" />
            <mxPoint x="640" y="400" as="targetPoint" />
          </mxGeometry>
        </mxCell>
        <mxCell id="BEybLAtCmw5lqT1kiuZ2-81" value="" style="endArrow=none;html=1;rounded=0;" parent="1" edge="1">
          <mxGeometry width="50" height="50" relative="1" as="geometry">
            <mxPoint x="660" y="400" as="sourcePoint" />
            <mxPoint x="640" y="390" as="targetPoint" />
          </mxGeometry>
        </mxCell>
        <mxCell id="BEybLAtCmw5lqT1kiuZ2-82" value="" style="shape=xor;whiteSpace=wrap;html=1;rotation=-120;" parent="1" vertex="1">
          <mxGeometry x="640" y="362.82" width="20" height="39.38" as="geometry" />
        </mxCell>
        <mxCell id="BEybLAtCmw5lqT1kiuZ2-84" value="" style="endArrow=none;html=1;rounded=0;" parent="1" edge="1">
          <mxGeometry width="50" height="50" relative="1" as="geometry">
            <mxPoint x="710" y="540" as="sourcePoint" />
            <mxPoint x="720" y="500" as="targetPoint" />
          </mxGeometry>
        </mxCell>
        <mxCell id="BEybLAtCmw5lqT1kiuZ2-86" value="" style="endArrow=none;html=1;rounded=0;" parent="1" edge="1">
          <mxGeometry width="50" height="50" relative="1" as="geometry">
            <mxPoint x="710" y="540" as="sourcePoint" />
            <mxPoint x="670" y="520" as="targetPoint" />
          </mxGeometry>
        </mxCell>
        <mxCell id="BEybLAtCmw5lqT1kiuZ2-87" value="" style="endArrow=none;html=1;rounded=0;" parent="1" edge="1">
          <mxGeometry width="50" height="50" relative="1" as="geometry">
            <mxPoint x="710" y="540" as="sourcePoint" />
            <mxPoint x="690" y="520" as="targetPoint" />
          </mxGeometry>
        </mxCell>
        <mxCell id="BEybLAtCmw5lqT1kiuZ2-88" value="" style="endArrow=none;html=1;rounded=0;" parent="1" edge="1">
          <mxGeometry width="50" height="50" relative="1" as="geometry">
            <mxPoint x="710" y="540" as="sourcePoint" />
            <mxPoint x="710" y="510" as="targetPoint" />
          </mxGeometry>
        </mxCell>
        <mxCell id="BEybLAtCmw5lqT1kiuZ2-89" value="" style="shape=xor;whiteSpace=wrap;html=1;rotation=-120;" parent="1" vertex="1">
          <mxGeometry x="678.47" y="475.34" width="31.29" height="65.46" as="geometry" />
        </mxCell>
        <mxCell id="BEybLAtCmw5lqT1kiuZ2-90" value="" style="endArrow=classic;html=1;rounded=0;" parent="1" edge="1">
          <mxGeometry width="50" height="50" relative="1" as="geometry">
            <mxPoint x="320" y="740" as="sourcePoint" />
            <mxPoint x="180" y="740" as="targetPoint" />
          </mxGeometry>
        </mxCell>
        <mxCell id="BEybLAtCmw5lqT1kiuZ2-91" value="Инициализация" style="text;html=1;align=center;verticalAlign=middle;whiteSpace=wrap;rounded=0;fontSize=20;" parent="1" vertex="1">
          <mxGeometry x="340" y="760" width="60" height="30" as="geometry" />
        </mxCell>
        <mxCell id="BEybLAtCmw5lqT1kiuZ2-92" value="Приземление" style="text;html=1;align=center;verticalAlign=middle;whiteSpace=wrap;rounded=0;fontSize=20;" parent="1" vertex="1">
          <mxGeometry x="675" y="760" width="60" height="30" as="geometry" />
        </mxCell>
        <mxCell id="BEybLAtCmw5lqT1kiuZ2-94" value="" style="endArrow=classic;startArrow=classic;html=1;rounded=0;" parent="1" edge="1">
          <mxGeometry width="50" height="50" relative="1" as="geometry">
            <mxPoint x="675" y="760" as="sourcePoint" />
            <mxPoint x="674.8199999999999" y="610" as="targetPoint" />
          </mxGeometry>
        </mxCell>
        <mxCell id="BEybLAtCmw5lqT1kiuZ2-95" value="" style="endArrow=none;html=1;rounded=0;" parent="1" edge="1">
          <mxGeometry width="50" height="50" relative="1" as="geometry">
            <mxPoint x="669.76" y="759.5" as="sourcePoint" />
            <mxPoint x="709.76" y="760" as="targetPoint" />
          </mxGeometry>
        </mxCell>
        <mxCell id="BEybLAtCmw5lqT1kiuZ2-96" value="" style="endArrow=none;html=1;rounded=0;" parent="1" edge="1">
          <mxGeometry width="50" height="50" relative="1" as="geometry">
            <mxPoint x="669.76" y="610" as="sourcePoint" />
            <mxPoint x="709.76" y="610.5" as="targetPoint" />
          </mxGeometry>
        </mxCell>
        <mxCell id="BEybLAtCmw5lqT1kiuZ2-97" value="100м" style="text;html=1;align=center;verticalAlign=middle;whiteSpace=wrap;rounded=0;rotation=-90;" parent="1" vertex="1">
          <mxGeometry x="640" y="670" width="60" height="30" as="geometry" />
        </mxCell>
        <mxCell id="BEybLAtCmw5lqT1kiuZ2-98" value="Полет в&lt;div&gt;ракете&lt;/div&gt;" style="text;html=1;align=center;verticalAlign=middle;whiteSpace=wrap;rounded=0;fontSize=20;" parent="1" vertex="1">
          <mxGeometry x="110" y="350" width="60" height="30" as="geometry" />
        </mxCell>
        <mxCell id="BEybLAtCmw5lqT1kiuZ2-99" value="Установка под&lt;div&gt;обтекатель&lt;/div&gt;" style="text;html=1;align=center;verticalAlign=middle;whiteSpace=wrap;rounded=0;fontSize=20;" parent="1" vertex="1">
          <mxGeometry x="230" y="690" width="60" height="30" as="geometry" />
        </mxCell>
        <mxCell id="BEybLAtCmw5lqT1kiuZ2-100" value="Выход из под&lt;div&gt;обтекателя&lt;/div&gt;" style="text;html=1;align=center;verticalAlign=middle;whiteSpace=wrap;rounded=0;fontSize=20;" parent="1" vertex="1">
          <mxGeometry x="330" y="350" width="60" height="30" as="geometry" />
        </mxCell>
        <mxCell id="BEybLAtCmw5lqT1kiuZ2-101" value="Спуск" style="text;html=1;align=center;verticalAlign=middle;whiteSpace=wrap;rounded=0;fontSize=20;" parent="1" vertex="1">
          <mxGeometry x="610" y="300" width="60" height="30" as="geometry" />
        </mxCell>
        <mxCell id="BEybLAtCmw5lqT1kiuZ2-102" value="Сброс&lt;br&gt;&quot;удобрений&lt;br&gt;Включение датчиков&quot;" style="text;html=1;align=center;verticalAlign=middle;whiteSpace=wrap;rounded=0;fontSize=20;" parent="1" vertex="1">
          <mxGeometry x="750" y="600" width="60" height="30" as="geometry" />
        </mxCell>
      </root>
    </mxGraphModel>
  </diagram>
</mxfile>
